<svg width="639" height="252" viewBox="0 0 639 252" fill="none" xmlns="http://www.w3.org/2000/svg">
<path d="M12.2815 7.88416C19.6264 7.56079 26.9688 7.31528 34.3193 7.16531C37.734 7.09328 41.1438 6.99588 44.5556 6.83751C68.4328 5.75797 68.4328 5.75797 74.1184 10.7819C76.5995 13.6281 78.4035 16.7035 80.0257 20.1034C81.0478 22.1948 82.3603 23.9358 83.8132 25.7476C84.5871 26.8092 85.3594 27.872 86.13 28.9361C89.9526 34.1706 93.8417 39.3485 97.7801 44.4962C103.063 51.4059 108.245 58.3833 113.382 65.4014C114.778 67.3053 116.177 69.2062 117.578 71.1063C118.284 72.0631 118.284 72.0631 119.003 73.0392C119.926 74.2899 120.848 75.5404 121.771 76.7908C123.695 79.4021 125.615 82.016 127.501 84.6551C128.051 85.4242 128.601 86.1932 129.168 86.9855C129.625 87.6314 130.082 88.2772 130.552 88.9426C131.581 90.4484 131.581 90.4484 133.212 91.1285C133.427 90.6768 133.642 90.2252 133.863 89.7599C134.698 88.1512 135.602 86.7466 136.66 85.2784C137.044 84.7456 137.427 84.2128 137.822 83.6638C138.239 83.0908 138.656 82.5177 139.085 81.9273C139.741 81.0215 139.741 81.0215 140.41 80.0974C144.412 74.5995 148.535 69.1976 152.67 63.7995C155.833 59.662 158.924 55.4889 161.926 51.2334C168.195 42.3545 174.54 33.4168 181.339 24.9348C183.362 22.3601 184.993 20.0033 186.22 16.958C188.06 12.9472 190.114 10.0136 194.062 7.88416C203.208 5.85943 212.897 6.66606 222.191 7.03735C225.707 7.16438 229.223 7.22001 232.741 7.28198C239.621 7.41357 246.496 7.62352 253.372 7.88416C252.134 11.1845 250.487 13.6528 248.269 16.3627C247.501 17.3223 246.734 18.2828 245.968 19.2441C245.55 19.7674 245.132 20.2906 244.702 20.8297C242.209 23.9835 239.776 27.1824 237.341 30.3813C236.552 31.4186 236.552 31.4186 235.746 32.4769C231.888 37.5601 228.095 42.6881 224.326 47.8374C220.456 53.1117 216.493 58.3111 212.519 63.5068C209.144 67.9272 205.82 72.3812 202.535 76.869C198.237 82.7419 193.847 88.5398 189.424 94.3194C185.451 99.5224 181.555 104.779 177.702 110.072C174.872 113.944 171.944 117.662 168.767 121.258C167.713 122.65 167.713 122.65 168.053 124.156C168.762 126.144 169.738 127.476 171.036 129.141C171.534 129.785 172.032 130.43 172.545 131.095C173.084 131.784 173.624 132.474 174.18 133.184C175.315 134.654 176.45 136.124 177.583 137.595C178.44 138.706 178.44 138.706 179.314 139.839C181.708 142.967 184.037 146.141 186.36 149.322C190.153 154.506 194.011 159.636 197.914 164.738C204.108 172.84 210.154 181.045 216.176 189.275C221.827 196.993 227.548 204.649 233.36 212.247C237.325 217.439 241.219 222.681 245.069 227.959C247.678 231.528 250.362 235.017 253.137 238.458C254.143 239.889 254.143 239.889 254.143 241.431C246.543 241.682 238.945 241.873 231.343 241.99C227.811 242.046 224.283 242.122 220.754 242.245C217.342 242.363 213.934 242.427 210.52 242.455C209.223 242.474 207.927 242.513 206.631 242.572C196.763 243 196.763 243 193.55 240.388C191.228 237.837 189.519 235 187.887 231.975C186.757 229.983 185.368 228.219 183.953 226.425C183.461 225.785 182.97 225.145 182.463 224.485C181.97 223.846 181.476 223.206 180.968 222.547C177.232 217.672 173.556 212.774 170.021 207.752C167.26 203.844 164.395 200.019 161.519 196.196C157.691 191.107 153.882 186.006 150.11 180.876C149.674 180.286 149.239 179.696 148.79 179.088C146.429 175.884 144.091 172.666 141.775 169.429C141.285 168.749 140.794 168.069 140.289 167.368C139.343 166.056 138.404 164.74 137.471 163.419C137.047 162.834 136.624 162.249 136.188 161.646C135.817 161.126 135.446 160.605 135.063 160.069C134.707 159.702 134.35 159.335 133.982 158.957C133.22 158.957 132.457 158.957 131.672 158.957C130.366 160.24 130.366 160.24 129.129 161.983C128.39 162.965 128.39 162.965 127.635 163.967C127.108 164.683 126.582 165.398 126.039 166.135C125.489 166.869 124.94 167.604 124.374 168.36C122.69 170.615 121.017 172.878 119.347 175.144C118.874 175.785 118.401 176.426 117.914 177.087C116.153 179.477 114.394 181.868 112.64 184.263C108.77 189.539 104.806 194.739 100.831 199.935C97.0103 204.939 93.2641 209.994 89.5469 215.076C85.5172 220.57 81.3893 225.988 77.2359 231.39C76.7454 232.029 76.2549 232.669 75.7496 233.329C75.318 233.889 74.8865 234.45 74.4418 235.028C73.0362 236.842 73.0362 236.842 71.876 239.197C70.0508 241.431 70.0508 241.431 67.3995 241.987C66.3283 242 65.2567 241.988 64.1859 241.956C63.3062 241.957 63.3062 241.957 62.4088 241.958C60.4742 241.955 58.5417 241.919 56.6074 241.882C55.2648 241.874 53.9222 241.867 52.5796 241.863C49.0488 241.845 45.5189 241.799 41.9884 241.748C38.3847 241.701 34.7808 241.68 31.1769 241.657C24.1078 241.607 17.0393 241.528 9.9707 241.431C11.1806 238.201 12.603 236.09 14.8811 233.482C17.987 229.862 20.9033 226.141 23.7391 222.306C26.7743 218.208 29.8728 214.18 33.0785 210.214C36.2464 206.293 39.317 202.315 42.3215 198.267C45.7322 193.673 49.2427 189.177 52.8317 184.722C55.8827 180.932 58.8573 177.091 61.8127 173.226C64.2836 169.997 66.783 166.79 69.2806 163.582C72.373 159.608 75.4588 155.63 78.5237 151.635C81.6246 147.595 84.7405 143.567 87.8631 139.543C88.3233 138.948 88.7836 138.353 89.2578 137.739C91.2162 135.213 93.1779 132.7 95.2437 130.261C95.8107 129.588 96.3776 128.915 96.9617 128.222C97.4453 127.668 97.9288 127.113 98.427 126.542C99.4427 125.129 99.4427 125.129 99.3207 123.613C98.1625 121.127 96.4705 119.106 94.7473 116.998C93.9675 116.025 93.1882 115.051 92.4094 114.077C92.0161 113.588 91.6228 113.099 91.2175 112.595C89.558 110.519 87.9397 108.413 86.3226 106.303C85.8602 105.7 85.8602 105.7 85.3885 105.086C82.2793 101.03 79.1788 96.9675 76.077 92.9062C72.2816 87.9377 68.4722 82.9801 64.659 78.0252C63.3751 76.3554 62.0914 74.6853 60.8077 73.0151C60.1659 72.1801 59.524 71.3451 58.8821 70.5101C49.8958 58.8199 40.9094 47.1297 31.9231 35.4396C31.6052 35.0261 31.2874 34.6127 30.9599 34.1867C30.3191 33.353 29.6785 32.5193 29.038 31.6854C27.4175 29.576 25.7944 27.4687 24.1663 25.3652C21.0349 21.3157 17.9264 17.2501 14.8811 13.1351C14.3787 12.4565 13.8763 11.7779 13.3586 11.0787C12.2815 9.42572 12.2815 9.42572 12.2815 7.88416Z" fill="white"/>
<path d="M506.017 7.11341C515.747 7.05957 525.476 7.01862 535.206 6.9936C539.725 6.98159 544.244 6.96533 548.763 6.93897C553.133 6.91364 557.503 6.89998 561.873 6.89402C563.531 6.88979 565.189 6.88152 566.847 6.86893C584.767 6.73843 601.317 8.51416 615.153 21.132C627.097 33.8436 628.967 52.3973 628.63 69.0318C628.156 83.3276 625.22 99.0342 615.198 109.922C603.117 121.119 588.001 123.596 572.166 123.685C571.381 123.69 571.381 123.69 570.58 123.695C567.804 123.711 565.027 123.722 562.251 123.729C559.981 123.736 557.712 123.752 555.442 123.776C522.838 124.122 522.838 124.122 512.336 115.417C506.396 109.253 505.563 101.116 505.667 92.954C505.667 92.0206 505.666 91.0871 505.666 90.1254C505.668 87.5937 505.683 85.0625 505.705 82.5308C505.724 79.8748 505.726 77.2187 505.729 74.5626C505.739 69.5454 505.764 64.5284 505.795 59.5114C505.83 53.7943 505.847 48.0772 505.862 42.3601C505.894 30.6111 505.948 18.8623 506.017 7.11341ZM545.3 24.8414C545.247 34.0944 545.206 43.3474 545.181 52.6006C545.169 56.8974 545.152 61.1941 545.126 65.4908C545.101 69.6389 545.087 73.7869 545.081 77.935C545.077 79.5161 545.068 81.0972 545.056 82.6782C545.039 84.896 545.037 87.1134 545.038 89.3312C545.03 89.9821 545.021 90.633 545.013 91.3036C545.034 95.4136 545.621 98.2949 547.611 101.919C558.387 109.592 576.476 108.51 589.082 106.454C595.179 104.749 600.399 100.25 603.84 94.9824C611.662 80.8702 612.351 64.0025 608.63 48.5489C606.006 39.6536 600.445 31.809 592.349 27.0574C586.77 24.4938 580.933 24.737 574.937 24.7661C574.089 24.7672 573.241 24.7683 572.367 24.7694C569.667 24.7737 566.967 24.7834 564.268 24.7932C562.434 24.7971 560.599 24.8006 558.765 24.8037C554.277 24.8122 549.788 24.8251 545.3 24.8414Z" fill="white"/>
<path d="M383.546 7.11328C419.895 7.11328 456.243 7.11328 493.693 7.11328C493.693 12.9635 493.693 18.8137 493.693 24.8412C470.562 24.8412 447.431 24.8412 423.6 24.8412C423.6 34.2525 423.6 43.6637 423.6 53.3601C444.443 53.3601 465.286 53.3601 486.761 53.3601C486.761 59.2104 486.761 65.0606 486.761 71.0881C465.918 71.0881 445.074 71.0881 423.6 71.0881C422.632 87.2375 422.632 87.2375 426.681 101.919C430.211 105.011 433.474 105.125 437.991 105.161C438.593 105.168 439.194 105.176 439.814 105.184C441.802 105.208 443.79 105.227 445.778 105.246C447.156 105.262 448.534 105.278 449.912 105.295C453.54 105.337 457.168 105.376 460.796 105.413C464.498 105.451 468.2 105.494 471.902 105.537C479.166 105.62 486.429 105.698 493.693 105.773C493.693 111.623 493.693 117.474 493.693 123.501C489.802 124.057 486.12 124.422 482.218 124.516C481.645 124.532 481.073 124.548 480.483 124.565C478.628 124.616 476.773 124.661 474.918 124.706C474.278 124.721 473.639 124.737 472.979 124.753C468.587 124.861 464.195 124.955 459.802 125.043C458.892 125.062 457.982 125.081 457.045 125.101C447.237 125.282 437.459 124.986 427.664 124.509C426.421 124.448 425.178 124.39 423.936 124.335C411.123 123.748 397.966 122.776 388.7 112.849C383.496 106.138 383.432 98.7447 383.459 90.5913C383.459 89.674 383.459 88.7566 383.459 87.8114C383.459 84.8484 383.465 81.8854 383.471 78.9224C383.472 77.0904 383.473 75.2585 383.473 73.4266C383.477 66.6414 383.488 59.8563 383.498 53.0711C383.514 37.905 383.53 22.7389 383.546 7.11328Z" fill="white"/>
<path d="M261.845 7.11328C275.063 7.11328 288.28 7.11328 301.898 7.11328C301.902 9.89501 301.905 12.6767 301.908 15.5428C301.921 24.7261 301.955 33.9094 302 43.0926C302.027 48.6613 302.046 54.2299 302.049 59.7987C302.051 64.6527 302.067 69.5066 302.099 74.3605C302.116 76.9305 302.123 79.5 302.119 82.0701C302.115 84.9401 302.135 87.809 302.161 90.6788C302.151 91.9554 302.151 91.9554 302.141 93.2577C302.197 97.9448 302.197 97.9448 304.385 101.996C308.395 104.748 311.592 105.234 316.394 105.248C316.988 105.256 317.583 105.264 318.195 105.272C320.149 105.295 322.104 105.309 324.058 105.322C325.417 105.336 326.776 105.351 328.135 105.367C331.704 105.406 335.274 105.437 338.844 105.466C342.489 105.496 346.134 105.536 349.779 105.575C356.927 105.649 364.074 105.713 371.222 105.773C371.222 111.623 371.222 117.474 371.222 123.501C367.33 124.057 363.649 124.422 359.746 124.516C359.174 124.532 358.601 124.548 358.012 124.565C356.157 124.616 354.302 124.661 352.447 124.706C351.807 124.721 351.167 124.737 350.508 124.753C346.116 124.861 341.723 124.955 337.33 125.043C336.421 125.062 335.511 125.081 334.574 125.101C324.797 125.282 315.042 125.006 305.277 124.551C304.045 124.495 302.813 124.442 301.58 124.393C289.318 123.892 275.944 122.651 266.948 113.337C262.179 106.992 261.396 99.9621 261.495 92.2539C261.495 91.328 261.494 90.402 261.494 89.448C261.496 86.937 261.511 84.4265 261.533 81.9155C261.552 79.2811 261.554 76.6467 261.557 74.0121C261.567 69.0359 261.592 64.0599 261.623 59.0837C261.658 53.4133 261.675 47.7428 261.69 42.0722C261.722 30.4191 261.779 18.7663 261.845 7.11328Z" fill="white"/>
<path d="M267.237 233.723C383.4 233.723 499.563 233.723 619.245 233.723C619.245 236.012 619.245 238.301 619.245 240.66C503.083 240.66 386.92 240.66 267.237 240.66C267.237 238.371 267.237 236.081 267.237 233.723Z" fill="white"/>
<path d="M267.237 143.542C383.4 143.542 499.563 143.542 619.245 143.542C619.245 145.831 619.245 148.12 619.245 150.479C503.083 150.479 386.92 150.479 267.237 150.479C267.237 148.189 267.237 145.9 267.237 143.542Z" fill="white"/>
<path d="M543.964 174.021C549.043 178.142 552.534 183.323 553.773 189.789C554.605 198.462 553.517 205.102 547.948 211.9C540.668 219.536 530.452 224.405 519.86 224.657C507.719 224.886 497.72 224.052 487.53 216.766C487.033 216.418 486.536 216.07 486.023 215.712C480.799 211.68 477.115 205.529 475.977 199.038C475.268 191.981 476.359 185.819 480.562 179.997C496.62 161.231 524.286 160.61 543.964 174.021ZM494.463 186.705C492.198 190.093 491.721 193.469 492.152 197.496C494.394 204.002 497.773 207.434 503.706 210.6C510.94 213.747 518.506 213.359 525.767 210.597C531.239 208.113 535.256 204.673 537.597 199.038C538.208 194.792 538.048 190.87 535.581 187.211C530.864 181.557 525.455 177.998 518.061 177.164C508.391 176.836 500.922 179.311 494.463 186.705Z" fill="#0006FE"/>
<path d="M350.425 165.123C357.596 165.071 364.768 165.029 371.94 165.004C375.271 164.992 378.602 164.975 381.933 164.949C385.154 164.924 388.375 164.91 391.597 164.904C392.819 164.9 394.041 164.891 395.263 164.879C405.371 164.779 414.78 165.244 422.829 172.06C426.861 176.065 428.448 179.332 428.51 185.019C428.404 190.679 427.699 193.307 423.726 197.418C420.734 200.228 418.338 201.728 414.356 202.892C414.783 203.506 415.21 204.12 415.65 204.752C416.487 205.977 416.487 205.977 417.341 207.227C418.172 208.434 418.172 208.434 419.02 209.666C422.105 214.762 422.206 218.239 422.829 224.474C417.237 224.474 411.645 224.474 405.883 224.474C405.375 221.93 404.867 219.386 404.343 216.766C401.757 212.136 397.696 209.284 392.789 207.516C387.456 206.116 382.245 205.724 376.752 205.656C375.614 205.633 375.614 205.633 374.454 205.61C372.061 205.565 369.667 205.529 367.274 205.493C365.639 205.464 364.005 205.433 362.37 205.403C358.388 205.329 354.407 205.264 350.425 205.204C350.425 201.134 350.425 197.065 350.425 192.871C352.081 192.864 353.736 192.857 355.442 192.85C360.921 192.824 366.4 192.781 371.878 192.73C375.199 192.699 378.519 192.675 381.84 192.663C385.047 192.651 388.253 192.624 391.459 192.588C392.681 192.576 393.902 192.57 395.124 192.569C396.839 192.568 398.553 192.547 400.268 192.521C401.73 192.511 401.73 192.511 403.222 192.501C406.374 192.027 408.045 191.014 410.505 189.018C411.905 186.871 411.905 186.871 412.045 184.393C410.799 181.799 409.842 180.226 407.263 178.88C404.65 178.086 402.387 178.01 399.656 177.981C399.122 177.973 398.588 177.965 398.038 177.957C396.283 177.934 394.529 177.921 392.774 177.908C391.553 177.893 390.333 177.878 389.112 177.862C385.907 177.823 382.702 177.792 379.497 177.763C376.224 177.733 372.95 177.693 369.677 177.655C363.259 177.58 356.842 177.516 350.425 177.456C350.425 173.386 350.425 169.316 350.425 165.123Z" fill="#FF0000"/>
<path d="M444.396 165.124C449.48 165.124 454.564 165.124 459.802 165.124C459.802 184.709 459.802 204.295 459.802 224.474C454.718 224.474 449.634 224.474 444.396 224.474C444.396 204.888 444.396 185.303 444.396 165.124Z" fill="#00FF0C"/>
</svg>
